<svg id="Group_307" data-name="Group 307" xmlns="http://www.w3.org/2000/svg" width="32" height="33" viewBox="0 0 32 33">
  <rect id="Rectangle_1758" data-name="Rectangle 1758" width="32" height="33" rx="8" fill="#9a7cff"/>
  <path id="Icon_awesome-map-pin" data-name="Icon awesome-map-pin" d="M5.056,12.381V18.5l.994,1.29a.591.591,0,0,0,.9,0l.994-1.29V12.381a8.787,8.787,0,0,1-2.889,0ZM6.5,0C2.91,0,0,2.518,0,5.625S2.91,11.25,6.5,11.25,13,8.732,13,5.625,10.09,0,6.5,0Zm0,2.969A2.888,2.888,0,0,0,3.431,5.625a.51.51,0,0,1-.542.469.51.51,0,0,1-.542-.469A3.908,3.908,0,0,1,6.5,2.031a.51.51,0,0,1,.542.469A.51.51,0,0,1,6.5,2.969Z" transform="translate(8.507 8)" fill="#fff"/>
</svg>
