<svg id="Group_306" data-name="Group 306" xmlns="http://www.w3.org/2000/svg" width="32" height="33" viewBox="0 0 32 33">
  <rect id="Rectangle_1757" data-name="Rectangle 1757" width="32" height="33" rx="8" fill="#9a7cff"/>
  <path id="Icon_material-location-city" data-name="Icon material-location-city" d="M12.5,10.105V5.368L10.5,3l-2,2.368V6.947h-4V18h12V10.105ZM7.167,16.421H5.833V14.842H7.167Zm0-3.158H5.833V11.684H7.167Zm0-3.158H5.833V8.526H7.167Zm4,6.316H9.833V14.842h1.333Zm0-3.158H9.833V11.684h1.333Zm0-3.158H9.833V8.526h1.333Zm0-3.158H9.833V5.368h1.333Zm4,9.474H13.833V14.842h1.333Zm0-3.158H13.833V11.684h1.333Z" transform="translate(4.948 4.5)" fill="#fff"/>
</svg>
