<svg id="Group_308" data-name="Group 308" xmlns="http://www.w3.org/2000/svg" width="32" height="33" viewBox="0 0 32 33">
  <rect id="Rectangle_1756" data-name="Rectangle 1756" width="32" height="33" rx="8" fill="#9a7cff"/>
  <path id="Icon_metro-file-code" data-name="Icon metro-file-code" d="M15.951,6.02a2.379,2.379,0,0,1,.438.763,2.519,2.519,0,0,1,.182.884V19.239a.98.98,0,0,1-.255.683.806.806,0,0,1-.62.281H3.446a.806.806,0,0,1-.62-.281.98.98,0,0,1-.255-.683V3.168a.98.98,0,0,1,.255-.683.806.806,0,0,1,.62-.281h8.167a1.942,1.942,0,0,1,.8.2,2.108,2.108,0,0,1,.693.482ZM11.9,3.57V7.346h3.427a1.134,1.134,0,0,0-.2-.412L12.278,3.791A.973.973,0,0,0,11.9,3.57Zm3.5,15.348V8.632H11.612a.806.806,0,0,1-.62-.281.98.98,0,0,1-.255-.683V3.489h-7V18.918H15.4Zm-8.458-9a.263.263,0,0,1,.191-.126.282.282,0,0,1,.219.065l.465.382a.3.3,0,0,1,.114.211.358.358,0,0,1-.059.241L6.217,13.132l1.659,2.441a.358.358,0,0,1,.059.241.3.3,0,0,1-.114.211l-.465.382a.282.282,0,0,1-.219.065.263.263,0,0,1-.191-.126l-2.06-3.023a.317.317,0,0,1,0-.382Zm7.31,3.023a.317.317,0,0,1,0,.382L12.2,16.346a.263.263,0,0,1-.191.126.282.282,0,0,1-.219-.065l-.465-.382a.3.3,0,0,1-.114-.211.358.358,0,0,1,.059-.241l1.659-2.441-1.659-2.441a.358.358,0,0,1-.059-.241.3.3,0,0,1,.114-.211l.465-.382A.282.282,0,0,1,12,9.792a.263.263,0,0,1,.191.126ZM8.6,17.572a.265.265,0,0,1-.187-.131.352.352,0,0,1-.05-.241L9.625,8.853a.3.3,0,0,1,.119-.206.275.275,0,0,1,.219-.055l.574.1a.265.265,0,0,1,.187.131.352.352,0,0,1,.05.241L9.516,17.411a.3.3,0,0,1-.118.206.275.275,0,0,1-.219.055Z" transform="translate(6.892 4.796)" fill="#fff"/>
</svg>
