<svg id="Group_302" data-name="Group 302" xmlns="http://www.w3.org/2000/svg" width="32" height="33" viewBox="0 0 32 33">
  <rect id="Rectangle_1752" data-name="Rectangle 1752" width="32" height="33" rx="8" fill="#9a7cff"/>
  <path id="Icon_material-location-on" data-name="Icon material-location-on" d="M14.5,3c-3.87,0-7,2.817-7,6.3,0,4.725,7,11.7,7,11.7s7-6.975,7-11.7C21.5,5.817,18.37,3,14.5,3Zm0,8.55A2.386,2.386,0,0,1,12,9.3a2.386,2.386,0,0,1,2.5-2.25A2.386,2.386,0,0,1,17,9.3,2.386,2.386,0,0,1,14.5,11.55Z" transform="translate(1 3)" fill="#fff"/>
</svg>
